# Blender 4.4.3
# www.blender.org
mtllib modifiable_mekatool_right.mtl
o blade_mekatool_right_arm_barrel_heatsink
v 0.450000 0.732809 -0.095352
v 0.450000 0.718750 -0.156250
v 0.450000 0.367421 -0.010995
v 0.450000 0.353361 -0.071893
v 0.387500 0.718750 -0.156250
v 0.387500 0.732809 -0.095352
v 0.387500 0.353361 -0.071893
v 0.387500 0.367421 -0.010995
vn -0.0000 -0.2250 -0.9744
vn 1.0000 -0.0000 -0.0000
vn -1.0000 -0.0000 -0.0000
vt 0.968750 0.031250
vt 1.000000 0.031250
vt 1.000000 0.218750
vt 0.968750 0.218750
s 1
usemtl 7
f 4/1/1 7/2/1 5/3/1 2/4/1
f 3/2/2 4/1/2 2/4/2 1/3/2
f 7/2/3 8/1/3 6/4/3 5/3/3
o blade_mekatool_right_arm_rod
v 0.453125 0.593750 0.062500
v 0.453125 0.593750 -0.000000
v 0.453125 0.281250 0.062500
v 0.453125 0.281250 -0.000000
v 0.390625 0.593750 -0.000000
v 0.390625 0.593750 0.062500
v 0.390625 0.281250 -0.000000
v 0.390625 0.281250 0.062500
vn -0.0000 -0.0000 -1.0000
vn 1.0000 -0.0000 -0.0000
vn -0.0000 -0.0000 1.0000
vn -1.0000 -0.0000 -0.0000
vn -0.0000 1.0000 -0.0000
vn -0.0000 -1.0000 -0.0000
vt 0.000000 0.875000
vt 0.125000 0.875000
vt 0.125000 1.000000
vt 0.000000 1.000000
s 1
usemtl 7
f 12/5/4 15/6/4 13/7/4 10/8/4
f 11/5/5 12/6/5 10/7/5 9/8/5
f 16/5/6 11/6/6 9/7/6 14/8/6
f 15/5/7 16/6/7 14/7/7 13/8/7
f 14/5/8 9/6/8 10/7/8 13/8/8
f 15/5/9 12/6/9 11/7/9 16/8/9
o blade_mekatool_right_arm_rod_ring1
v 0.468750 0.593750 0.078125
v 0.468750 0.593750 -0.015625
v 0.468750 0.468750 0.078125
v 0.468750 0.468750 -0.015625
v 0.375000 0.593750 -0.015625
v 0.375000 0.593750 0.078125
v 0.375000 0.468750 -0.015625
v 0.375000 0.468750 0.078125
vn -0.0000 -0.0000 -1.0000
vn 1.0000 -0.0000 -0.0000
vn -0.0000 -0.0000 1.0000
vn -1.0000 -0.0000 -0.0000
vn -0.0000 -1.0000 -0.0000
vt 0.062500 0.468750
vt 0.031250 0.468750
vt 0.031250 0.531250
vt 0.062500 0.531250
vt 0.062500 0.500000
vt 0.031250 0.500000
s 1
usemtl 7
f 20/9/10 23/10/10 21/11/10 18/12/10
f 19/9/11 20/10/11 18/11/11 17/12/11
f 24/9/12 19/10/12 17/11/12 22/12/12
f 23/9/13 24/10/13 22/11/13 21/12/13
f 23/13/14 20/14/14 19/11/14 24/12/14
o blade_mekatool_right_arm_rod_ring2
v 0.468750 0.406250 0.078125
v 0.468750 0.406250 -0.015625
v 0.468750 0.343750 0.078125
v 0.468750 0.343750 -0.015625
v 0.375000 0.406250 -0.015625
v 0.375000 0.406250 0.078125
v 0.375000 0.343750 -0.015625
v 0.375000 0.343750 0.078125
vn -0.0000 -0.0000 -1.0000
vn 1.0000 -0.0000 -0.0000
vn -0.0000 -0.0000 1.0000
vn -1.0000 -0.0000 -0.0000
vn -0.0000 1.0000 -0.0000
vn -0.0000 -1.0000 -0.0000
vt 0.062500 0.468750
vt 0.031250 0.468750
vt 0.031250 0.500000
vt 0.062500 0.500000
s 1
usemtl 7
f 28/15/15 31/16/15 29/17/15 26/18/15
f 27/15/16 28/16/16 26/17/16 25/18/16
f 32/15/17 27/16/17 25/17/17 30/18/17
f 31/15/18 32/16/18 30/17/18 29/18/18
f 30/15/19 25/16/19 26/17/19 29/18/19
f 31/15/20 28/16/20 27/17/20 32/18/20
o handle_mekatool_right_arm_cartridge1
v 0.465625 0.632960 0.312969
v 0.465625 0.793657 0.121458
v 0.465625 0.537204 0.232621
v 0.465625 0.697901 0.041110
v 0.340625 0.793657 0.121458
v 0.340625 0.632960 0.312969
v 0.340625 0.697901 0.041110
v 0.340625 0.537204 0.232621
vn -0.0000 0.6428 -0.7660
vn 1.0000 -0.0000 -0.0000
vn -0.0000 -0.6428 0.7660
vn -1.0000 -0.0000 -0.0000
vn -0.0000 0.7660 0.6428
vn -0.0000 -0.7660 -0.6428
vt 0.250000 0.968750
vt 0.218750 0.968750
vt 0.218750 1.000000
vt 0.250000 1.000000
vt 0.250000 0.937500
vt 0.187500 0.937500
vt 0.187500 1.000000
s 1
usemtl 7
f 36/19/21 39/20/21 37/21/21 34/22/21
f 35/19/22 36/20/22 34/21/22 33/22/22
f 40/19/23 35/20/23 33/21/23 38/22/23
f 39/19/24 40/20/24 38/21/24 37/22/24
f 38/23/25 33/24/25 34/25/25 37/22/25
f 39/19/26 36/20/26 35/21/26 40/22/26
o handle_mekatool_right_arm_cartridge2
v 0.528125 0.611917 0.397653
v 0.528125 0.692265 0.301897
v 0.528125 0.468284 0.277130
v 0.528125 0.548632 0.181375
v 0.278125 0.692265 0.301897
v 0.278125 0.611917 0.397653
v 0.278125 0.548632 0.181375
v 0.278125 0.468284 0.277130
vn -0.0000 0.6428 -0.7660
vn 1.0000 -0.0000 -0.0000
vn -0.0000 -0.6428 0.7660
vn -1.0000 -0.0000 -0.0000
vn -0.0000 0.7660 0.6428
vn -0.0000 -0.7660 -0.6428
vt 0.937500 0.125000
vt 0.812500 0.125000
vt 0.812500 0.031250
vt 0.937500 0.031250
vt 0.781250 0.000000
vt 0.781250 0.062500
vt 0.875000 0.062500
vt 0.875000 0.000000
vt 0.812500 0.093750
vt 0.687500 0.093750
vt 0.687500 0.187500
vt 0.812500 0.187500
vt 0.750000 0.000000
vt 0.750000 0.062500
vt 0.812500 0.000000
vt 0.937500 0.000000
vt 0.937500 0.062500
vt 0.812500 0.062500
vt 0.718750 0.062500
vt 0.843750 0.062500
vt 0.843750 0.000000
vt 0.718750 0.000000
s 1
usemtl 7
f 44/26/27 47/27/27 45/28/27 42/29/27
f 43/30/28 44/31/28 42/32/28 41/33/28
f 48/34/29 43/35/29 41/36/29 46/37/29
f 47/32/30 48/33/30 46/38/30 45/39/30
f 46/40/31 41/41/31 42/42/31 45/43/31
f 47/44/32 44/45/32 43/46/32 48/47/32
o mekatool_right_arm_barrel1
v 0.546557 0.718750 0.156250
v 0.546557 0.718750 -0.093750
v 0.546557 0.593750 0.156250
v 0.546557 0.593750 -0.093750
v 0.296557 0.718750 -0.093750
v 0.296557 0.718750 0.156250
v 0.296557 0.593750 -0.093750
v 0.296557 0.593750 0.156250
vn -0.0000 -0.0000 -1.0000
vn 1.0000 -0.0000 -0.0000
vn -0.0000 -0.0000 1.0000
vn -1.0000 -0.0000 -0.0000
vn -0.0000 1.0000 -0.0000
vn -0.0000 -1.0000 -0.0000
vt 0.812500 0.093750
vt 0.843750 0.093750
vt 0.843750 0.156250
vt 0.812500 0.156250
vt 0.250000 0.000000
vt 0.250000 0.125000
vt 0.312500 0.125000
vt 0.312500 0.000000
vt 0.125000 0.937500
vt 0.093750 0.937500
vt 0.093750 1.000000
vt 0.125000 1.000000
vt 0.781250 0.031250
vt 0.906250 0.031250
vt 0.906250 0.093750
vt 0.781250 0.093750
vt 0.937500 0.187500
vt 0.812500 0.187500
vt 0.812500 0.312500
vt 0.937500 0.312500
s 1
usemtl 6
f 52/48/33 55/49/33 53/50/33 50/51/33
f 51/52/34 52/53/34 50/54/34 49/55/34
f 56/56/35 51/57/35 49/58/35 54/59/35
f 55/60/36 56/61/36 54/62/36 53/63/36
f 54/64/37 49/65/37 50/66/37 53/67/37
f 55/64/38 52/65/38 51/66/38 56/67/38
o mekatool_right_arm_barrel2
v 0.496875 0.599197 -0.031488
v 0.496875 0.593750 -0.093750
v 0.496875 0.225624 0.001196
v 0.496875 0.220177 -0.061067
v 0.340625 0.593750 -0.093750
v 0.340625 0.599197 -0.031488
v 0.340625 0.220177 -0.061067
v 0.340625 0.225624 0.001196
vn -0.0000 -0.0872 -0.9962
vn 1.0000 -0.0000 -0.0000
vn -0.0000 0.0872 0.9962
vn -1.0000 -0.0000 -0.0000
vn -0.0000 -0.9962 0.0872
vt 1.000000 0.218750
vt 0.968750 0.218750
vt 0.968750 0.437500
vt 1.000000 0.437500
vt 0.937500 0.062500
vt 0.843750 0.062500
vt 0.843750 0.093750
vt 0.937500 0.093750
s 1
usemtl 6
f 60/68/39 63/69/39 61/70/39 58/71/39
f 59/68/40 60/69/40 58/70/40 57/71/40
f 64/68/41 59/69/41 57/70/41 62/71/41
f 63/68/42 64/69/42 62/70/42 61/71/42
f 63/72/43 60/73/43 59/74/43 64/75/43
o mekatool_right_arm_barrel3
v 0.546557 0.593750 0.156250
v 0.544867 0.599366 0.094026
v 0.507246 0.159689 0.118143
v 0.505556 0.165305 0.055918
v 0.482643 0.604810 0.096207
v 0.484333 0.599194 0.158431
v 0.443332 0.170749 0.058100
v 0.445022 0.165133 0.120324
vn -0.0270 0.0899 -0.9956
vn 0.9956 -0.0871 -0.0349
vn 0.0270 -0.0899 0.9956
vn -0.9956 0.0871 0.0349
vn -0.0899 -0.9921 -0.0871
vt 1.000000 0.218750
vt 0.968750 0.218750
vt 0.968750 0.437500
vt 1.000000 0.437500
vt 0.968750 0.250000
vt 1.000000 0.250000
s 1
usemtl 6
f 68/76/44 71/77/44 69/78/44 66/79/44
f 67/76/45 68/77/45 66/78/45 65/79/45
f 72/76/46 67/77/46 65/78/46 70/79/46
f 71/76/47 72/77/47 70/78/47 69/79/47
f 71/76/48 68/77/48 67/80/48 72/81/48
o mekatool_right_arm_barrel4
v 0.358781 0.599194 0.158431
v 0.360471 0.604810 0.096207
v 0.398092 0.165133 0.120324
v 0.399782 0.170749 0.058100
v 0.298247 0.599366 0.094026
v 0.296557 0.593750 0.156250
v 0.337558 0.165305 0.055918
v 0.335868 0.159689 0.118143
vn 0.0270 0.0899 -0.9956
vn 0.9956 0.0871 0.0349
vn -0.0270 -0.0899 0.9956
vn -0.9956 -0.0871 -0.0349
vn 0.0899 -0.9921 -0.0871
vt 1.000000 0.218750
vt 0.968750 0.218750
vt 0.968750 0.437500
vt 1.000000 0.437500
vt 0.968750 0.250000
vt 1.000000 0.250000
s 1
usemtl 6
f 76/82/49 79/83/49 77/84/49 74/85/49
f 75/82/50 76/83/50 74/84/50 73/85/50
f 80/82/51 75/83/51 73/84/51 78/85/51
f 79/82/52 80/83/52 78/84/52 77/85/52
f 79/82/53 76/83/53 75/86/53 80/87/53
o mekatool_right_arm_barrel_scope
v 0.465625 0.367734 -0.034746
v 0.465625 0.351454 -0.127072
v 0.465625 0.306183 -0.023893
v 0.465625 0.289904 -0.116219
v 0.371875 0.351454 -0.127072
v 0.371875 0.367734 -0.034746
v 0.371875 0.289904 -0.116219
v 0.371875 0.306183 -0.023893
vn -0.0000 -0.1736 -0.9848
vn 1.0000 -0.0000 -0.0000
vn -0.0000 0.1736 0.9848
vn -1.0000 -0.0000 -0.0000
vn -0.0000 0.9848 -0.1737
vn -0.0000 -0.9848 0.1736
vt 0.218750 0.968750
vt 0.187500 0.968750
vt 0.187500 1.000000
vt 0.218750 1.000000
vt 1.000000 0.906250
vt 0.906250 0.906250
vt 0.906250 1.000000
vt 1.000000 1.000000
s 1
usemtl 6
f 84/88/54 87/89/54 85/90/54 82/91/54
f 83/88/55 84/89/55 82/90/55 81/91/55
f 88/88/56 83/89/56 81/90/56 86/91/56
f 87/88/57 88/89/57 86/90/57 85/91/57
f 86/92/58 81/93/58 82/94/58 85/95/58
f 87/94/59 84/95/59 83/92/59 88/93/59
o mekatool_right_arm_barrel_sight_led
v 0.434375 0.361975 -0.067955
v 0.434375 0.356548 -0.098730
v 0.434375 0.299809 -0.056994
v 0.434375 0.294382 -0.087769
v 0.403125 0.356548 -0.098730
v 0.403125 0.361975 -0.067955
v 0.403125 0.294382 -0.087769
v 0.403125 0.299809 -0.056994
vn -0.0000 -0.1736 -0.9848
vn 1.0000 -0.0000 -0.0000
vn -0.0000 0.1736 0.9848
vn -1.0000 -0.0000 -0.0000
vn -0.0000 0.9848 -0.1737
vn -0.0000 -0.9848 0.1737
vt 0.000000 0.875000
vt 0.125000 0.875000
vt 0.125000 1.000000
vt 0.000000 1.000000
s 1
usemtl 4
f 92/96/60 95/97/60 93/98/60 90/99/60
f 91/96/61 92/97/61 90/98/61 89/99/61
f 96/96/62 91/97/62 89/98/62 94/99/62
f 95/96/63 96/97/63 94/98/63 93/99/63
f 94/96/64 89/97/64 90/98/64 93/99/64
f 95/96/65 92/97/65 91/98/65 96/99/65
o mekatool_right_arm_chamber
v 0.609057 1.031250 0.031250
v 0.609057 1.031250 -0.093750
v 0.609057 0.781250 0.031250
v 0.609057 0.781250 -0.093750
v 0.421557 1.031250 -0.093750
v 0.421557 1.031250 0.031250
v 0.421557 0.781250 -0.093750
v 0.421557 0.781250 0.031250
vn -0.0000 -0.0000 -1.0000
vn 1.0000 -0.0000 -0.0000
vn -0.0000 -0.0000 1.0000
vn -1.0000 -0.0000 -0.0000
vn -0.0000 1.0000 -0.0000
vn -0.0000 -1.0000 -0.0000
vt 0.093750 0.937500
vt 0.062500 0.937500
vt 0.062500 1.000000
vt 0.093750 1.000000
vt 0.062500 0.218750
vt 0.000000 0.218750
vt 0.000000 0.343750
vt 0.062500 0.343750
vt 0.343750 0.000000
vt 0.437500 0.000000
vt 0.437500 0.125000
vt 0.343750 0.125000
vt 0.093750 0.062500
vt 0.000000 0.062500
vt 0.000000 0.125000
vt 0.093750 0.125000
s 1
usemtl 6
f 100/100/66 103/101/66 101/102/66 98/103/66
f 99/104/67 100/105/67 98/106/67 97/107/67
f 104/108/68 99/109/68 97/110/68 102/111/68
f 103/100/69 104/101/69 102/102/69 101/103/69
f 102/112/70 97/113/70 98/114/70 101/115/70
f 103/100/71 100/101/71 99/102/71 104/103/71
o handle_mekatool_chest_right_arm_exo_brace3
v 0.527500 0.997334 0.234545
v 0.527500 1.029687 0.113804
v 0.527500 0.695483 0.153664
v 0.527500 0.727835 0.032924
v 0.402500 1.029687 0.113804
v 0.402500 0.997334 0.234545
v 0.402500 0.727835 0.032924
v 0.402500 0.695483 0.153664
vn -0.0000 0.2588 -0.9659
vn 1.0000 -0.0000 -0.0000
vn -0.0000 -0.2588 0.9659
vn -1.0000 -0.0000 -0.0000
vn -0.0000 0.9659 0.2588
vn -0.0000 -0.9659 -0.2588
vt 0.781250 0.718750
vt 0.843750 0.718750
vt 0.843750 0.875000
vt 0.781250 0.875000
vt 0.812500 0.718750
vt 0.750000 0.718750
vt 0.750000 0.875000
vt 0.812500 0.875000
vt 0.875000 0.718750
vt 0.875000 0.875000
vt 0.843750 0.656250
vt 0.781250 0.656250
vt 0.781250 0.781250
vt 0.843750 0.781250
s 1
usemtl 7
f 108/116/72 111/117/72 109/118/72 106/119/72
f 107/120/73 108/121/73 106/122/73 105/123/73
f 112/120/74 107/116/74 105/119/74 110/123/74
f 111/120/75 112/124/75 110/125/75 109/123/75
f 110/126/76 105/127/76 106/116/76 109/117/76
f 111/117/77 108/116/77 107/128/77 112/129/77
o override_mekatool_chest_right_arm_finger1
v 0.593750 0.906250 0.156250
v 0.593750 0.906250 0.093750
v 0.593750 0.843750 0.156250
v 0.593750 0.843750 0.093750
v 0.468750 0.906250 0.093750
v 0.468750 0.906250 0.156250
v 0.468750 0.843750 0.093750
v 0.468750 0.843750 0.156250
vn -0.0000 -0.0000 -1.0000
vn 1.0000 -0.0000 -0.0000
vn -0.0000 -0.0000 1.0000
vn -1.0000 -0.0000 -0.0000
vn -0.0000 1.0000 -0.0000
vn -0.0000 -1.0000 -0.0000
vt 0.406250 0.187500
vt 0.468750 0.187500
vt 0.468750 0.125000
vt 0.406250 0.125000
s 1
usemtl 3
f 116/130/78 119/131/78 117/132/78 114/133/78
f 115/130/79 116/131/79 114/132/79 113/133/79
f 120/130/80 115/131/80 113/132/80 118/133/80
f 119/130/81 120/131/81 118/132/81 117/133/81
f 118/130/82 113/131/82 114/132/82 117/133/82
f 119/130/83 116/131/83 115/132/83 120/133/83
o override_mekatool_chest_right_arm_finger2
v 0.593750 0.781250 0.218750
v 0.593750 0.781250 0.093750
v 0.593750 0.718750 0.218750
v 0.593750 0.718750 0.093750
v 0.468750 0.781250 0.093750
v 0.468750 0.781250 0.218750
v 0.468750 0.718750 0.093750
v 0.468750 0.718750 0.218750
vn -0.0000 -0.0000 -1.0000
vn 1.0000 -0.0000 -0.0000
vn -0.0000 -0.0000 1.0000
vn -1.0000 -0.0000 -0.0000
vn -0.0000 1.0000 -0.0000
vn -0.0000 -1.0000 -0.0000
vt 0.406250 0.187500
vt 0.468750 0.187500
vt 0.468750 0.125000
vt 0.406250 0.125000
s 1
usemtl 3
f 124/134/84 127/135/84 125/136/84 122/137/84
f 123/134/85 124/135/85 122/136/85 121/137/85
f 128/134/86 123/135/86 121/136/86 126/137/86
f 127/134/87 128/135/87 126/136/87 125/137/87
f 126/134/88 121/135/88 122/136/88 125/137/88
f 127/134/89 124/135/89 123/136/89 128/137/89
o override_mekatool_chest_right_arm_finger3
v 0.593750 0.843750 0.156250
v 0.593750 0.843750 0.093750
v 0.593750 0.781250 0.156250
v 0.593750 0.781250 0.093750
v 0.468750 0.843750 0.093750
v 0.468750 0.843750 0.156250
v 0.468750 0.781250 0.093750
v 0.468750 0.781250 0.156250
vn -0.0000 -0.0000 -1.0000
vn 1.0000 -0.0000 -0.0000
vn -0.0000 -0.0000 1.0000
vn -1.0000 -0.0000 -0.0000
vn -0.0000 1.0000 -0.0000
vn -0.0000 -1.0000 -0.0000
vt 0.406250 0.250000
vt 0.468750 0.250000
vt 0.468750 0.187500
vt 0.406250 0.187500
s 1
usemtl 3
f 132/138/90 135/139/90 133/140/90 130/141/90
f 131/138/91 132/139/91 130/140/91 129/141/91
f 136/138/92 131/139/92 129/140/92 134/141/92
f 135/138/93 136/139/93 134/140/93 133/141/93
f 134/138/94 129/139/94 130/140/94 133/141/94
f 135/138/95 132/139/95 131/140/95 136/141/95
o override_mekatool_chest_right_arm_finger4
v 0.593750 0.718750 0.218750
v 0.593750 0.718750 0.031250
v 0.593750 0.656250 0.218750
v 0.593750 0.656250 0.031250
v 0.468750 0.718750 0.031250
v 0.468750 0.718750 0.218750
v 0.468750 0.656250 0.031250
v 0.468750 0.656250 0.218750
vn -0.0000 -0.0000 -1.0000
vn 1.0000 -0.0000 -0.0000
vn -0.0000 -0.0000 1.0000
vn -1.0000 -0.0000 -0.0000
vn -0.0000 1.0000 -0.0000
vn -0.0000 -1.0000 -0.0000
vt 0.406250 0.250000
vt 0.468750 0.250000
vt 0.468750 0.187500
vt 0.406250 0.187500
s 1
usemtl 3
f 140/142/96 143/143/96 141/144/96 138/145/96
f 139/142/97 140/143/97 138/144/97 137/145/97
f 144/142/98 139/143/98 137/144/98 142/145/98
f 143/142/99 144/143/99 142/144/99 141/145/99
f 142/142/100 137/143/100 138/144/100 141/145/100
f 143/142/101 140/143/101 139/144/101 144/145/101
o override_mekatool_chest_right_arm_lower_plate
v 0.546557 0.968437 0.093750
v 0.546557 0.968437 -0.156250
v 0.546557 0.718437 0.093750
v 0.546557 0.718437 -0.156250
v 0.359057 0.968437 -0.156250
v 0.359057 0.968437 0.093750
v 0.359057 0.718437 -0.156250
v 0.359057 0.718437 0.093750
vn -0.0000 -0.0000 -1.0000
vn 1.0000 -0.0000 -0.0000
vn -0.0000 -0.0000 1.0000
vn -1.0000 -0.0000 -0.0000
vn -0.0000 1.0000 -0.0000
vn -0.0000 -1.0000 -0.0000
vt 0.156250 0.000000
vt 0.250000 0.000000
vt 0.250000 0.125000
vt 0.156250 0.125000
vt 0.000000 0.000000
vt 0.125000 0.000000
vt 0.125000 0.125000
vt 0.000000 0.125000
vt 0.093750 0.937500
vt 0.062500 0.937500
vt 0.062500 1.000000
vt 0.093750 1.000000
vt 0.312500 0.000000
vt 0.406250 0.000000
vt 0.406250 0.125000
vt 0.312500 0.125000
vt 0.156250 0.093750
vt 0.250000 0.093750
s 1
usemtl 6
f 148/146/102 151/147/102 149/148/102 146/149/102
f 147/150/103 148/151/103 146/152/103 145/153/103
f 152/154/104 147/155/104 145/156/104 150/157/104
f 151/147/105 152/151/105 150/152/105 149/148/105
f 150/158/106 145/159/106 146/160/106 149/161/106
f 151/147/107 148/146/107 147/162/107 152/163/107
